<?xml version="1.0" encoding="utf-8"?>
<!-- Generator: Adobe Illustrator 16.0.0, SVG Export Plug-In . SVG Version: 6.00 Build 0)  -->
<!DOCTYPE svg PUBLIC "-//W3C//DTD SVG 1.1//EN" "http://www.w3.org/Graphics/SVG/1.1/DTD/svg11.dtd">
<svg version="1.1" id="Layer_1" xmlns="http://www.w3.org/2000/svg" xmlns:xlink="http://www.w3.org/1999/xlink" x="0px" y="0px"
	 width="56.69px" height="56.69px" viewBox="0 0 56.69 56.69" enable-background="new 0 0 56.69 56.69" xml:space="preserve">
<g>
	<path fill="#FFFFFF" d="M23.756,52.469L3.013,31.198L23.636,2.917l31.452,15.163L23.756,52.469z M3.926,31.132l19.813,20.317
		l30.201-33.148L23.858,3.799L3.926,31.132z"/>
</g>
<g>
	<path fill="#FFFFFF" d="M28.474,23.012c0,3.251-2.278,4.319-5.577,5.552c-2.682,0.999-5.399,0.807-5.696,5.554
		c0.712-2.421,2.065-3.251,3.678-3.251c2.444,0,3.37,1.804,5.411,1.804c1.187,0,2.444-0.546,2.444-2.325v-0.097h0.047v0.286
		c0,2.61-1.4,5.054-3.82,5.054c-3.229,0-3.608-2.421-5.815-2.349c-1.187,0.035-1.97,0.83-1.97,2.017H17.13v-0.354
		c0-4.51,1.875-5.056,4.581-7.097c2.492-1.875,2.752-3.44,2.752-5.317c0-2.49-0.854-3.914-2.729-3.914
		c-2.064,0-4.129,1.281-4.319,3.393c0.238-0.853,1.021-1.494,1.946-1.494c1.116,0,2.017,0.901,2.017,2.015
		c0,1.117-0.901,2.018-2.017,2.018c-1.329,0-2.018-1.043-2.018-2.183c0-2.301,2.112-4.011,5.412-4.011
		C25.863,18.312,28.474,20.52,28.474,23.012z"/>
</g>
<g>
	<path fill="#FFFFFF" d="M30.528,24.693h1.011v-6.227h-1.011v-0.127h1.693c0.085,0,0.17-0.001,0.255-0.004
		c0.084-0.002,0.169-0.007,0.255-0.014c0.085,0,0.17-0.001,0.255-0.004c0.085-0.003,0.17-0.004,0.255-0.004
		c0.183,0,0.345,0.003,0.487,0.008c0.143,0.007,0.275,0.017,0.4,0.033c0.124,0.016,0.242,0.037,0.355,0.063
		c0.111,0.027,0.231,0.062,0.359,0.105c0.369,0.122,0.689,0.284,0.959,0.486c0.271,0.204,0.492,0.44,0.665,0.706
		c0.173,0.267,0.3,0.559,0.382,0.874s0.123,0.646,0.123,0.993c0,0.4-0.048,0.759-0.146,1.078c-0.097,0.32-0.23,0.601-0.4,0.847
		c-0.17,0.245-0.368,0.458-0.596,0.638c-0.229,0.178-0.473,0.322-0.733,0.431c-0.146,0.066-0.283,0.119-0.414,0.156
		c-0.13,0.037-0.264,0.063-0.4,0.081c-0.137,0.02-0.286,0.031-0.451,0.038c-0.163,0.006-0.352,0.009-0.563,0.009
		c-0.091,0-0.188-0.001-0.291-0.004c-0.104-0.003-0.207-0.008-0.31-0.014c-0.104-0.006-0.205-0.011-0.305-0.014
		c-0.101-0.003-0.196-0.004-0.287-0.004h-1.548V24.693z M32.449,24.693c0.104,0.013,0.224,0.021,0.36,0.028
		c0.136,0.004,0.286,0.008,0.45,0.008c0.205,0,0.41-0.011,0.614-0.033c0.203-0.021,0.396-0.066,0.583-0.136
		c0.185-0.071,0.357-0.169,0.518-0.301c0.161-0.13,0.306-0.301,0.433-0.513c0.194-0.328,0.329-0.663,0.405-1.007
		c0.076-0.342,0.114-0.717,0.114-1.124c0-0.479-0.046-0.915-0.137-1.306c-0.091-0.392-0.241-0.725-0.45-1.001
		c-0.21-0.276-0.487-0.491-0.834-0.642c-0.346-0.151-0.772-0.228-1.283-0.228c-0.151,0-0.289,0.002-0.413,0.01
		c-0.125,0.005-0.245,0.011-0.36,0.017V24.693z"/>
</g>
</svg>
